<svg width="1644" height="1644" viewBox="0 0 1644 1644" fill="none" xmlns="http://www.w3.org/2000/svg">
<circle cx="822" cy="822" r="822" fill="#556CD6"/>
<path d="M859.619 281.159C501.9 281.159 218.679 490.129 218.679 747.771C218.679 893.665 306.216 1024.04 451.861 1109.59C484.889 1129.08 488.614 1274.48 303.111 1362.26C303.111 1362.26 565.72 1403.73 732.35 1193.15C773.572 1198.99 816.037 1211.65 859.743 1211.65C1217.46 1211.65 1435.62 1005.54 1435.62 747.895C1435.5 490.129 1217.46 281.283 859.619 281.159ZM542.377 870.818C479.426 870.818 428.394 819.787 428.394 756.835C428.394 693.883 479.426 642.852 542.377 642.852C605.329 642.852 656.361 693.883 656.361 756.835C656.361 819.787 605.329 870.818 542.377 870.818ZM827.46 870.818C764.508 870.818 713.477 819.787 713.477 756.835C713.477 693.883 764.508 642.852 827.46 642.852C890.412 642.852 941.443 693.883 941.443 756.835C941.443 819.787 890.412 870.818 827.46 870.818ZM1112.42 870.818C1049.47 870.818 998.435 819.787 998.435 756.835C998.435 693.883 1049.47 642.852 1112.42 642.852C1175.37 642.852 1226.4 693.883 1226.4 756.835C1226.4 819.787 1175.37 870.818 1112.42 870.818Z" fill="white"/>
<ellipse cx="827.858" cy="777.093" rx="136.675" ry="253.824" fill="white"/>
<path d="M823.952 609.178L855.515 714.69H957.652L875.021 779.9L906.583 885.412L823.952 820.202L741.322 885.412L772.884 779.9L690.253 714.69H792.39L823.952 609.178Z" fill="#556CD6"/>
</svg>
